<svg width="85" height="85" viewBox="0 0 85 85" fill="none" xmlns="http://www.w3.org/2000/svg">
<path d="M31.3562 40.4458L52.763 52.8709C53.1252 53.0763 53.5617 53.0763 53.9239 52.8709L75.3306 40.4458C75.6928 40.2404 75.9064 39.8483 75.9064 39.4376V14.5874C75.9064 14.1673 75.6835 13.7845 75.3306 13.5698L53.9239 1.15403C53.5617 0.948657 53.1252 0.948657 52.763 1.15403L31.3562 13.5792C30.994 13.7939 30.7804 14.1766 30.7804 14.5967V39.4469C30.7711 39.8577 30.994 40.2404 31.3562 40.4458ZM33.0929 16.6131L52.1779 27.6939V49.8463L33.0929 38.7655V16.6131ZM39.5846 11.4974L58.6696 22.5783L53.3388 25.6682L34.2538 14.5874L39.5846 11.4974ZM45.6955 7.9407L64.7805 19.0309L61.0006 21.2247L41.9064 10.1438L45.6955 7.9407ZM62.1429 23.2504L65.5142 21.2993V29.3276L65.0684 29.0009C64.8176 28.8142 64.5112 28.7395 64.2047 28.7862C63.8982 28.8328 63.6289 29.0009 63.4431 29.2529L62.1429 31.0453V23.2504ZM54.4997 49.8463V27.6846L59.8212 24.5947V34.6113C59.8212 35.1154 60.1462 35.5635 60.6199 35.7222C60.7313 35.7595 60.8613 35.7782 60.9821 35.7782C61.3535 35.7782 61.7064 35.6008 61.9201 35.3021L64.6319 31.568L65.9878 32.5669C66.3407 32.8283 66.8051 32.8656 67.1951 32.6696C67.5852 32.4736 67.8266 32.0721 67.8266 31.6334V19.9644L73.5847 16.6224V38.7748L54.4997 49.8463ZM53.3388 3.5065L72.4238 14.5874L67.093 17.6773L48.0173 6.60577L53.3388 3.5065ZM71.8944 34.966V37.8133C71.8944 38.4574 71.3743 38.9802 70.7335 38.9802C70.0927 38.9802 69.5726 38.4574 69.5726 37.8133V34.966C69.5726 34.3219 70.0927 33.7991 70.7335 33.7991C71.3743 33.7991 71.8944 34.3219 71.8944 34.966ZM65.9599 38.4107V41.258C65.9599 41.9021 65.4399 42.4249 64.7991 42.4249C64.1582 42.4249 63.6382 41.9021 63.6382 41.258V38.4107C63.6382 37.7666 64.1582 37.2438 64.7991 37.2438C65.4399 37.2438 65.9599 37.7573 65.9599 38.4107ZM60.0255 41.8461V44.6933C60.0255 45.3374 59.5054 45.8602 58.8646 45.8602C58.2238 45.8602 57.7037 45.3374 57.7037 44.6933V41.8461C57.7037 41.2019 58.2238 40.6792 58.8646 40.6792C59.5054 40.6885 60.0255 41.2113 60.0255 41.8461ZM49.2896 43.2744C48.9646 43.8345 48.2587 44.0212 47.7015 43.7038L42.9744 40.9592C42.7051 40.8099 42.51 40.5485 42.4264 40.2498C42.3429 39.951 42.3893 39.6336 42.5379 39.3629C42.6958 39.0922 42.9465 38.8962 43.2437 38.8121C43.5409 38.7375 43.8659 38.7748 44.126 38.9335L48.8531 41.678C49.1224 41.8274 49.3175 42.0888 49.3918 42.3875C49.4939 42.6862 49.4475 43.0036 49.2896 43.2744ZM81.9245 49.3609C81.0236 47.9886 79.6027 47.0551 77.9867 46.775C76.2779 46.467 74.5134 46.8684 73.111 47.8953L58.3817 58.6961C57.5923 57.7626 56.5335 57.0998 55.3541 56.801L41.247 53.2443C40.7176 53.1136 40.2068 52.8802 39.7703 52.5348C32.0992 46.6817 23.7965 47.7086 15.0666 55.5688L14.4073 54.4486C14.2494 54.1778 13.9893 53.9911 13.6922 53.9165C13.395 53.8418 13.0792 53.8885 12.8099 54.0471L2.56621 60.199C2.01827 60.5258 1.83253 61.2446 2.16687 61.7953L15.4846 84.4332C15.6424 84.7039 15.9025 84.8906 16.1997 84.9653C16.4969 85.0399 16.8126 84.9933 17.0819 84.8346L27.3349 78.6827C27.8828 78.356 28.0686 77.6371 27.7342 77.0864L27.2606 76.2835L29.3966 75.014C30.1953 74.5192 31.1333 74.3325 32.0528 74.4819L53.8774 77.6278C54.1932 77.6745 54.5182 77.6932 54.8433 77.6932C56.3199 77.6932 57.7594 77.161 58.8832 76.1995L80.5407 58.0893C83.1782 55.9889 83.7819 52.1988 81.9245 49.3609ZM16.8869 82.2394L4.74868 61.6086L13.0142 56.6517L25.1524 77.2824L16.8869 82.2394ZM79.0455 56.2969L57.388 74.4072C56.5057 75.1633 55.3448 75.4994 54.2025 75.3127L32.3685 72.1761C30.9197 71.952 29.4431 72.2507 28.1893 73.0162L26.0626 74.2858L16.274 57.6319C24.2887 50.2384 31.5234 49.1835 38.368 54.4019C39.0459 54.934 39.8353 55.3167 40.6712 55.5221L54.7783 59.0788C55.707 59.3122 56.4964 59.9096 56.9793 60.7405C57.0072 60.7871 57.035 60.8338 57.0629 60.8898L57.0722 60.9085C57.5087 61.73 57.6201 62.6729 57.4065 63.5784C56.905 65.5294 54.9362 66.6963 52.9952 66.2109L46.0113 64.4185C45.7141 64.3345 45.389 64.3719 45.1197 64.5306C44.8504 64.6893 44.6553 64.9506 44.5718 65.2494C44.4975 65.5574 44.5439 65.8748 44.7018 66.1455C44.8689 66.4163 45.129 66.603 45.4355 66.6777L52.4194 68.47C55.6048 69.2728 58.8367 67.3498 59.654 64.1572C59.9326 63.0369 59.8862 61.8514 59.524 60.7498L74.4669 49.781C75.3585 49.1275 76.4822 48.8755 77.5688 49.0808C78.5533 49.2489 79.4262 49.8183 79.9835 50.6491C81.1722 52.4882 80.7729 54.9433 79.0455 56.2969Z" fill="#78FAAE"/>
</svg>
