<svg width="85" height="85" viewBox="0 0 85 85" fill="none" xmlns="http://www.w3.org/2000/svg">
<path d="M21.7578 2C19.6484 2 17.9297 3.73529 17.9297 5.87483V7.52139H14.1602C9.10156 7.51153 5 11.6526 5 16.7599V64.3818C5 69.3806 9.01367 73.4231 13.9648 73.4329H38.2422L37.4121 79.467C37.2559 80.6108 37.5879 81.7643 38.3398 82.632C39.0918 83.4996 40.1758 84.0025 41.3184 83.9926C41.5039 84.0025 41.6894 84.0025 41.8652 83.9926L50.1758 82.8193C50.4004 82.7897 50.5957 82.6911 50.7519 82.5334L77.5391 55.4687C79.1211 53.8715 80 51.7122 80 49.4642C80 47.2162 79.1113 45.0471 77.5391 43.4597C76.8555 42.7695 76.0645 42.2075 75.1855 41.7934V16.7697C75.1855 11.6624 71.084 7.52139 66.0352 7.52139H58.1836V5.87483C58.1836 3.73529 56.4648 2 54.3457 2C52.2266 2 50.5078 3.73529 50.5078 5.87483V7.52139H25.5957V5.87483C25.5957 4.84943 25.1953 3.85361 24.4727 3.124C23.7598 2.40424 22.7832 2 21.7578 2ZM17.9297 11.061V13.6442C17.9297 15.7837 19.6484 17.519 21.7676 17.519C23.8867 17.519 25.6055 15.7837 25.6055 13.6442V11.061C26.8164 12.1554 27.5098 13.7231 27.5098 15.3598C27.5098 18.5642 24.9414 21.1572 21.7676 21.1572C18.6035 21.1572 16.0254 18.5642 16.0254 15.3598C16.0254 13.7132 16.7187 12.1554 17.9297 11.061ZM19.9609 5.92413C19.9609 4.91845 20.7715 4.1001 21.7578 4.1001C22.7539 4.1001 23.5547 4.91845 23.5547 5.91427V13.6935C23.5547 14.6992 22.7539 15.5077 21.7578 15.5077C20.7617 15.5077 19.9609 14.6992 19.9609 13.6935V5.92413ZM64.7168 47.3543L68.5156 51.1896L47.8125 72.0132L41.6016 70.6131L64.7168 47.3543ZM43.9746 65.3283V59.7182H49.5312L43.9746 65.3283ZM58.8867 50.2727V45.333H63.7793L58.8867 50.2727ZM41.5918 81.9221C40.9961 81.9911 40.4102 81.7939 39.9902 81.3601C39.5703 80.9361 39.3652 80.3347 39.4434 79.7431L40.459 72.4568L47.2852 73.9851L48.5254 80.9953L41.5918 81.9221ZM50.4102 79.9699L49.2383 73.502L69.9609 52.5897L73.7598 56.4251L50.4102 79.9699ZM76.0644 54.0292L75.1269 54.9757L66.0937 45.8556L67.0312 44.9091C69.541 42.4639 73.5254 42.4935 75.9863 44.9879C78.4473 47.4824 78.4863 51.4953 76.0644 54.0292ZM65.8301 43.2724H57.8613C57.3047 43.2724 56.8457 43.7259 56.8457 44.2978V52.3235L51.5527 57.6674H42.9492C42.3926 57.6674 41.9336 58.121 41.9336 58.6928V67.3791L38.8867 70.4553C38.7305 70.6131 38.6328 70.8201 38.6035 71.0371V71.3328H13.9551C10.1367 71.3328 7.03125 68.1975 7.03125 64.3424V26.2448H73.1543V41.1131C70.5078 40.6201 67.793 41.4188 65.8301 43.2724ZM73.1543 16.7697V24.194H7.03125V16.7697C7.03125 12.7963 10.2246 9.58205 14.1504 9.58205H16.5137C14.1504 11.761 13.3594 15.1922 14.5215 18.2092C15.6836 21.2263 18.5645 23.208 21.7676 23.208C24.9805 23.208 27.8516 21.2263 29.0137 18.2092C30.1758 15.1922 29.3848 11.761 27.0215 9.58205H49.1113C46.7383 11.761 45.9473 15.1922 47.1094 18.2092C48.2715 21.2263 51.1523 23.2179 54.3555 23.2179C57.5586 23.2179 60.4394 21.2263 61.6016 18.2092C62.7637 15.1922 61.9629 11.761 59.5996 9.58205H66.0547C69.9707 9.58205 73.1543 12.7963 73.1543 16.7697ZM58.1836 13.6837V11.061C59.9512 12.6582 60.5566 15.202 59.707 17.4402C58.8574 19.6783 56.7285 21.1572 54.3555 21.1572C51.9824 21.1572 49.8437 19.6783 48.9941 17.4402C48.1445 15.202 48.75 12.6582 50.5176 11.061V13.6442C50.5176 15.7837 52.2363 17.519 54.3555 17.519C56.4746 17.519 58.1934 15.7837 58.1934 13.6442V13.6837H58.1836ZM52.5488 5.91427C52.5488 4.90859 53.3496 4.1001 54.3457 4.1001C55.3418 4.1001 56.1426 4.90859 56.1426 5.91427V13.6935C56.1426 14.6992 55.332 15.5077 54.3457 15.5077C53.3496 15.5077 52.5488 14.6992 52.5488 13.6935V5.91427ZM22.3145 28.8872H13.1543C12.5977 28.8872 12.1387 29.3407 12.1387 29.9126V38.8848C12.1387 39.1609 12.2461 39.4173 12.4316 39.6145C12.627 39.8116 12.8809 39.9102 13.1445 39.9102H22.3047C22.5781 39.9102 22.832 39.8018 23.0273 39.6145C23.2227 39.4173 23.3203 39.1609 23.3203 38.8848V29.9126C23.3203 29.6365 23.2129 29.3802 23.0273 29.183C22.8418 28.9956 22.5879 28.8872 22.3145 28.8872ZM21.2891 37.8989H14.1699V30.9478H21.2891V37.8989ZM37.2266 28.8872H28.0664C27.5 28.8872 27.0508 29.3407 27.0508 29.9126V38.8848C27.0508 39.1609 27.1582 39.4173 27.3437 39.6145C27.5391 39.8116 27.793 39.9102 28.0664 39.9102H37.2266C37.4902 39.9102 37.7539 39.8018 37.9394 39.6145C38.1348 39.4173 38.2324 39.1609 38.2324 38.8848V29.9126C38.2324 29.6365 38.125 29.3802 37.9394 29.183C37.7539 28.9956 37.4902 28.8872 37.2266 28.8872ZM36.2012 37.8989H29.082V30.9478H36.2012V37.8989ZM52.1387 28.8872H42.9785C42.4219 28.8872 41.9629 29.3407 41.9629 29.9126V38.8848C41.9629 39.1609 42.0703 39.4173 42.2559 39.6145C42.4512 39.8116 42.7051 39.9102 42.9785 39.9102H52.1387C52.4121 39.9102 52.666 39.8018 52.8613 39.6145C53.0566 39.4173 53.1543 39.1609 53.1543 38.8848V29.9126C53.1543 29.6365 53.0469 29.3802 52.8613 29.183C52.666 28.9956 52.4121 28.8872 52.1387 28.8872ZM51.1133 37.8989H43.9941L44.0039 30.9478H51.123L51.1133 37.8989ZM67.041 28.8872H57.8809C57.3242 28.8872 56.8652 29.3407 56.8652 29.9126V38.8848C56.8652 39.1609 56.9727 39.4173 57.1582 39.6145C57.3535 39.8116 57.6074 39.9102 57.8711 39.9102H67.0312C67.3047 39.9102 67.5586 39.8018 67.7539 39.6145C67.9492 39.4173 68.0469 39.1609 68.0469 38.8848V29.9126C68.0469 29.6365 67.9395 29.3802 67.7539 29.183C67.5781 28.9956 67.3242 28.8872 67.041 28.8872ZM66.0254 37.8989H58.9062L58.916 30.9478H66.0352L66.0254 37.8989ZM22.2852 43.2724H13.125H13.1348C12.5781 43.2724 12.1191 43.7259 12.1191 44.2978V53.3095C12.1191 53.5855 12.2266 53.8419 12.4121 54.0391C12.6074 54.2363 12.8613 54.3349 13.1348 54.3349H22.2949C22.5684 54.3349 22.8223 54.2264 23.0176 54.0391C23.2129 53.8419 23.3105 53.5855 23.3105 53.3095V44.2978C23.3105 43.7358 22.8711 43.2822 22.3145 43.2724H22.2852ZM21.2695 52.2939H14.1406L14.1504 45.333H21.2695V52.2939ZM37.1973 43.2724H28.0371H28.0469C27.4902 43.2724 27.0312 43.7259 27.0312 44.2978V53.3095C27.0312 53.5855 27.1387 53.8419 27.3242 54.0391C27.5195 54.2363 27.7734 54.3349 28.0371 54.3349H37.1973C37.4707 54.3349 37.7246 54.2264 37.9199 54.0391C38.1152 53.8419 38.2129 53.5855 38.2129 53.3095V44.2978C38.2129 43.7358 37.7734 43.2822 37.2168 43.2724H37.1973ZM36.1719 52.2939H29.0527L29.0625 45.333H36.1816L36.1719 52.2939ZM52.1094 43.2724H42.9492H42.959C42.3926 43.2724 41.9434 43.7259 41.9434 44.2978V53.3095C41.9434 53.5855 42.0508 53.8419 42.2363 54.0391C42.4316 54.2363 42.6855 54.3349 42.959 54.3349H52.1191C52.3828 54.3349 52.6465 54.2264 52.832 54.0391C53.0273 53.8419 53.125 53.5855 53.125 53.3095V44.2978C53.125 43.7358 52.6855 43.2822 52.1289 43.2724H52.1094ZM51.084 52.2939H43.9648L43.9746 45.333H51.0937L51.084 52.2939ZM22.3047 57.6674H13.1543C12.5977 57.6674 12.1387 58.121 12.1387 58.6928V67.7045C12.1387 67.9806 12.2461 68.2369 12.4316 68.4341C12.627 68.6313 12.8809 68.7299 13.1445 68.7299H22.3047C22.5781 68.7299 22.832 68.6215 23.0273 68.4341C23.2227 68.2369 23.3203 67.9806 23.3203 67.7045V58.6928C23.3203 58.4167 23.2129 58.1604 23.0273 57.9632C22.8418 57.7759 22.5781 57.6674 22.3047 57.6674ZM21.2891 66.6791H14.1699V59.7182H21.2891V66.6791ZM37.2168 57.6674H28.0566C27.4902 57.6674 27.041 58.121 27.041 58.6928V67.7045C27.041 67.9806 27.1484 68.2369 27.334 68.4341C27.5293 68.6313 27.7832 68.7299 28.0566 68.7299H37.2266C37.4902 68.7299 37.7539 68.6215 37.9394 68.4341C38.1348 68.2369 38.2324 67.9806 38.2324 67.7045V58.6928C38.2324 58.4167 38.125 58.1604 37.9394 57.9632C37.7539 57.7759 37.4902 57.6674 37.2168 57.6674ZM36.2012 66.6791H29.082V59.7182H36.2012V66.6791Z" fill="#78FAAE"/>
</svg>
